<svg xmlns="http://www.w3.org/2000/svg" version="1.1" xmlns:xlink="http://www.w3.org/1999/xlink" xmlns:svgjs="http://svgjs.dev/svgjs" viewBox="0 0 8.603568370843698 2.6090278719877356"><g transform="matrix(1,0,0,1,2.326370342701191,0.749513935993868)"><g><path d=" M 0.582 0.05999999999999983 Q 0.726 0.05999999999999983 0.7965 0.12749999999999984 Q 0.867 0.19499999999999984 0.867 0.32699999999999985 Q 0.867 0.39749999999999985 0.8325 0.4507499999999999 Q 0.798 0.5039999999999999 0.7305 0.5332499999999999 Q 0.663 0.5624999999999999 0.5640000000000001 0.5624999999999999 L 0.5700000000000001 0.4949999999999999 Q 0.6165 0.4949999999999999 0.6765 0.5077499999999998 Q 0.7365 0.5204999999999999 0.7927500000000001 0.5527499999999999 Q 0.849 0.5849999999999999 0.88575 0.6427499999999999 Q 0.9225 0.7004999999999999 0.9225 0.7904999999999999 Q 0.9225 0.8894999999999998 0.89025 0.9524999999999999 Q 0.858 1.0154999999999998 0.8055 1.0499999999999998 Q 0.753 1.0844999999999998 0.6930000000000001 1.0972499999999998 Q 0.633 1.1099999999999999 0.5775 1.1099999999999999 L 0.20400000000000001 1.1099999999999999 Q 0.165 1.1099999999999999 0.13875 1.0837499999999998 Q 0.1125 1.0574999999999999 0.1125 1.0185 L 0.1125 0.15149999999999986 Q 0.1125 0.11249999999999982 0.13875 0.08624999999999994 Q 0.165 0.05999999999999983 0.20400000000000001 0.05999999999999983 L 0.582 0.05999999999999983 M 0.555 0.23699999999999988 L 0.28800000000000003 0.23699999999999988 L 0.3075 0.21299999999999986 L 0.3075 0.4844999999999998 L 0.2895 0.47099999999999986 L 0.5595 0.47099999999999986 Q 0.603 0.47099999999999986 0.6375000000000001 0.4424999999999999 Q 0.672 0.4139999999999998 0.672 0.3599999999999999 Q 0.672 0.2954999999999999 0.63975 0.2662499999999999 Q 0.6075 0.23699999999999988 0.555 0.23699999999999988 M 0.5670000000000001 0.6479999999999999 L 0.294 0.6479999999999999 L 0.3075 0.6359999999999999 L 0.3075 0.9524999999999999 L 0.2925 0.9374999999999999 L 0.5775 0.9374999999999999 Q 0.6465 0.9374999999999999 0.687 0.9007499999999999 Q 0.7275 0.8639999999999999 0.7275 0.7904999999999999 Q 0.7275 0.7229999999999999 0.7005 0.6929999999999998 Q 0.6735 0.6629999999999998 0.636 0.6554999999999999 Q 0.5985 0.6479999999999999 0.5670000000000001 0.6479999999999999 M 1.3166078613281251 1.0185 Q 1.3166078613281251 1.0574999999999999 1.290357861328125 1.0837499999999998 Q 1.2641078613281251 1.1099999999999999 1.2251078613281252 1.1099999999999999 Q 1.1876078613281251 1.1099999999999999 1.162107861328125 1.0837499999999998 Q 1.1366078613281252 1.0574999999999999 1.1366078613281252 1.0185 L 1.1366078613281252 0.09149999999999991 Q 1.1366078613281252 0.05249999999999977 1.162857861328125 0.026249999999999885 Q 1.1891078613281252 -2.220446049250313e-16 1.228107861328125 -2.220446049250313e-16 Q 1.267107861328125 -2.220446049250313e-16 1.291857861328125 0.026249999999999885 Q 1.3166078613281251 0.05249999999999977 1.3166078613281251 0.09149999999999991 L 1.3166078613281251 1.0185 M 1.9281725097656253 1.1249999999999998 Q 1.8006725097656253 1.1249999999999998 1.7069225097656253 1.07175 Q 1.6131725097656253 1.0185 1.5629225097656252 0.9269999999999998 Q 1.5126725097656253 0.8354999999999999 1.5126725097656253 0.7199999999999999 Q 1.5126725097656253 0.5849999999999999 1.5674225097656254 0.4897499999999999 Q 1.6221725097656252 0.39449999999999985 1.7106725097656252 0.3434999999999998 Q 1.7991725097656253 0.29249999999999987 1.8981725097656252 0.29249999999999987 Q 1.9746725097656253 0.29249999999999987 2.042922509765625 0.32399999999999984 Q 2.111172509765625 0.3554999999999998 2.1636725097656253 0.4102499999999999 Q 2.2161725097656255 0.46499999999999986 2.2469225097656254 0.5369999999999998 Q 2.277672509765625 0.6089999999999999 2.277672509765625 0.69 Q 2.276172509765625 0.7259999999999999 2.2491725097656254 0.7484999999999999 Q 2.2221725097656253 0.7709999999999999 2.1861725097656253 0.7709999999999999 L 1.6131725097656253 0.7709999999999999 L 1.5681725097656254 0.6209999999999999 L 2.1186725097656254 0.6209999999999999 L 2.0856725097656255 0.6509999999999998 L 2.0856725097656255 0.6104999999999998 Q 2.0826725097656253 0.5669999999999998 2.054922509765625 0.5324999999999999 Q 2.0271725097656255 0.4979999999999999 1.9859225097656252 0.4777499999999999 Q 1.9446725097656252 0.4574999999999999 1.8981725097656252 0.4574999999999999 Q 1.8531725097656253 0.4574999999999999 1.8141725097656254 0.4694999999999999 Q 1.7751725097656252 0.4814999999999998 1.7466725097656253 0.5099999999999999 Q 1.7181725097656253 0.5384999999999999 1.7016725097656253 0.5864999999999999 Q 1.6851725097656254 0.6344999999999998 1.6851725097656254 0.7079999999999999 Q 1.6851725097656254 0.7889999999999999 1.7189225097656253 0.8452499999999998 Q 1.7526725097656253 0.9014999999999999 1.8059225097656253 0.9307499999999999 Q 1.8591725097656253 0.9599999999999999 1.9191725097656254 0.9599999999999999 Q 1.9746725097656253 0.9599999999999999 2.007672509765625 0.9509999999999998 Q 2.040672509765625 0.9419999999999998 2.0609225097656254 0.9292499999999999 Q 2.0811725097656253 0.9164999999999999 2.0976725097656255 0.9074999999999999 Q 2.124672509765625 0.8939999999999999 2.148672509765625 0.8939999999999999 Q 2.181672509765625 0.8939999999999999 2.203422509765625 0.9164999999999999 Q 2.2251725097656254 0.9389999999999998 2.2251725097656254 0.9689999999999999 Q 2.2251725097656254 1.0094999999999998 2.183172509765625 1.0425 Q 2.1441725097656255 1.0755 2.0736725097656254 1.10025 Q 2.0031725097656254 1.1249999999999998 1.9281725097656253 1.1249999999999998 M 2.4272481445312506 0.9854999999999998 Q 2.4122481445312505 0.9644999999999999 2.4137481445312505 0.9314999999999999 Q 2.4152481445312506 0.8984999999999999 2.4527481445312502 0.8744999999999998 Q 2.4767481445312503 0.8594999999999999 2.5037481445312504 0.8617499999999999 Q 2.5307481445312505 0.8639999999999999 2.5562481445312506 0.8894999999999998 Q 2.5997481445312505 0.9329999999999998 2.6477481445312505 0.9569999999999999 Q 2.6957481445312506 0.9809999999999999 2.7677481445312506 0.9809999999999999 Q 2.7902481445312506 0.9794999999999998 2.8172481445312503 0.9742499999999998 Q 2.8442481445312504 0.9689999999999999 2.8644981445312503 0.9502499999999998 Q 2.8847481445312506 0.9314999999999999 2.8847481445312506 0.8924999999999998 Q 2.8847481445312506 0.8594999999999999 2.86224814453125 0.8399999999999999 Q 2.8397481445312502 0.8204999999999999 2.8029981445312506 0.8069999999999999 Q 2.7662481445312506 0.7934999999999999 2.7212481445312506 0.7814999999999999 Q 2.67474814453125 0.7679999999999998 2.6259981445312506 0.7514999999999998 Q 2.5772481445312505 0.7349999999999999 2.5367481445312503 0.7087499999999999 Q 2.4962481445312505 0.6824999999999999 2.4707481445312505 0.6389999999999998 Q 2.4452481445312504 0.5954999999999999 2.4452481445312504 0.5294999999999999 Q 2.4452481445312504 0.4544999999999999 2.4872481445312506 0.4019999999999999 Q 2.5292481445312505 0.3494999999999998 2.5959981445312503 0.32099999999999984 Q 2.6627481445312506 0.29249999999999987 2.7362481445312503 0.29249999999999987 Q 2.7827481445312503 0.29249999999999987 2.8337481445312505 0.30374999999999985 Q 2.8847481445312506 0.31499999999999984 2.9312481445312506 0.3397499999999999 Q 2.9777481445312506 0.3644999999999998 3.0092481445312504 0.4049999999999999 Q 3.02574814453125 0.4274999999999999 3.0287481445312503 0.45899999999999985 Q 3.0317481445312504 0.4904999999999998 3.0002481445312505 0.5159999999999999 Q 2.9777481445312506 0.5339999999999998 2.9477481445312503 0.5317499999999998 Q 2.9177481445312505 0.5294999999999999 2.8982481445312507 0.5114999999999998 Q 2.8727481445312506 0.4784999999999998 2.8299981445312503 0.45899999999999985 Q 2.7872481445312505 0.4394999999999999 2.7317481445312506 0.4394999999999999 Q 2.7092481445312506 0.4394999999999999 2.6829981445312505 0.44474999999999987 Q 2.6567481445312504 0.44999999999999984 2.6372481445312506 0.46724999999999983 Q 2.6177481445312503 0.4844999999999998 2.6177481445312503 0.5219999999999999 Q 2.6177481445312503 0.5564999999999999 2.6402481445312507 0.5767499999999999 Q 2.6627481445312506 0.5969999999999999 2.7009981445312503 0.6097499999999999 Q 2.7392481445312504 0.6224999999999998 2.7827481445312503 0.6344999999999998 Q 2.8277481445312507 0.6464999999999999 2.8742481445312507 0.6629999999999998 Q 2.9207481445312506 0.6794999999999999 2.9597481445312503 0.7064999999999999 Q 2.9987481445312505 0.7334999999999998 3.0227481445312505 0.7762499999999999 Q 3.0467481445312505 0.819 3.0467481445312505 0.8849999999999999 Q 3.0467481445312505 0.9614999999999999 3.0017481445312506 1.0154999999999998 Q 2.9567481445312502 1.0695 2.8892481445312503 1.0972499999999998 Q 2.8217481445312504 1.1249999999999998 2.7512481445312504 1.1249999999999998 Q 2.6627481445312506 1.1249999999999998 2.5742481445312504 1.09425 Q 2.4857481445312506 1.0635 2.4272481445312506 0.9854999999999998 M 3.1962900878906257 0.9854999999999998 Q 3.1812900878906256 0.9644999999999999 3.1827900878906257 0.9314999999999999 Q 3.1842900878906257 0.8984999999999999 3.2217900878906254 0.8744999999999998 Q 3.2457900878906254 0.8594999999999999 3.2727900878906255 0.8617499999999999 Q 3.2997900878906257 0.8639999999999999 3.3252900878906257 0.8894999999999998 Q 3.3687900878906256 0.9329999999999998 3.4167900878906257 0.9569999999999999 Q 3.4647900878906257 0.9809999999999999 3.5367900878906258 0.9809999999999999 Q 3.5592900878906257 0.9794999999999998 3.5862900878906254 0.9742499999999998 Q 3.6132900878906256 0.9689999999999999 3.6335400878906254 0.9502499999999998 Q 3.6537900878906258 0.9314999999999999 3.6537900878906258 0.8924999999999998 Q 3.6537900878906258 0.8594999999999999 3.6312900878906254 0.8399999999999999 Q 3.6087900878906254 0.8204999999999999 3.5720400878906258 0.8069999999999999 Q 3.5352900878906257 0.7934999999999999 3.490290087890626 0.7814999999999999 Q 3.4437900878906254 0.7679999999999998 3.3950400878906257 0.7514999999999998 Q 3.3462900878906257 0.7349999999999999 3.3057900878906255 0.7087499999999999 Q 3.2652900878906257 0.6824999999999999 3.2397900878906256 0.6389999999999998 Q 3.2142900878906255 0.5954999999999999 3.2142900878906255 0.5294999999999999 Q 3.2142900878906255 0.4544999999999999 3.256290087890626 0.4019999999999999 Q 3.2982900878906256 0.3494999999999998 3.3650400878906255 0.32099999999999984 Q 3.431790087890626 0.29249999999999987 3.5052900878906255 0.29249999999999987 Q 3.5517900878906254 0.29249999999999987 3.6027900878906256 0.30374999999999985 Q 3.6537900878906258 0.31499999999999984 3.7002900878906257 0.3397499999999999 Q 3.7467900878906257 0.3644999999999998 3.7782900878906256 0.4049999999999999 Q 3.7947900878906253 0.4274999999999999 3.7977900878906254 0.45899999999999985 Q 3.8007900878906256 0.4904999999999998 3.7692900878906257 0.5159999999999999 Q 3.7467900878906257 0.5339999999999998 3.7167900878906255 0.5317499999999998 Q 3.6867900878906257 0.5294999999999999 3.667290087890626 0.5114999999999998 Q 3.6417900878906257 0.4784999999999998 3.5990400878906255 0.45899999999999985 Q 3.5562900878906256 0.4394999999999999 3.5007900878906257 0.4394999999999999 Q 3.4782900878906258 0.4394999999999999 3.4520400878906257 0.44474999999999987 Q 3.4257900878906256 0.44999999999999984 3.4062900878906257 0.46724999999999983 Q 3.3867900878906254 0.4844999999999998 3.3867900878906254 0.5219999999999999 Q 3.3867900878906254 0.5564999999999999 3.409290087890626 0.5767499999999999 Q 3.431790087890626 0.5969999999999999 3.4700400878906255 0.6097499999999999 Q 3.5082900878906256 0.6224999999999998 3.5517900878906254 0.6344999999999998 Q 3.596790087890626 0.6464999999999999 3.643290087890626 0.6629999999999998 Q 3.689790087890626 0.6794999999999999 3.7287900878906255 0.7064999999999999 Q 3.7677900878906256 0.7334999999999998 3.7917900878906257 0.7762499999999999 Q 3.8157900878906257 0.819 3.8157900878906257 0.8849999999999999 Q 3.8157900878906257 0.9614999999999999 3.7707900878906258 1.0154999999999998 Q 3.7257900878906254 1.0695 3.6582900878906255 1.0972499999999998 Q 3.5907900878906256 1.1249999999999998 3.5202900878906256 1.1249999999999998 Q 3.431790087890626 1.1249999999999998 3.3432900878906255 1.09425 Q 3.2547900878906257 1.0635 3.1962900878906257 0.9854999999999998 M 5.2384259765625005 0.058499999999999774 Q 5.277425976562501 0.058499999999999774 5.301425976562501 0.08474999999999988 Q 5.325425976562501 0.11099999999999988 5.325425976562501 0.1499999999999999 L 5.325425976562501 0.6929999999999998 Q 5.325425976562501 0.8174999999999999 5.272175976562501 0.9134999999999999 Q 5.218925976562501 1.0094999999999998 5.125925976562501 1.0635 Q 5.032925976562501 1.1175 4.9099259765625005 1.1175 Q 4.786925976562501 1.1175 4.693175976562501 1.0635 Q 4.599425976562501 1.0094999999999998 4.546175976562501 0.9134999999999999 Q 4.492925976562501 0.8174999999999999 4.492925976562501 0.6929999999999998 L 4.492925976562501 0.1499999999999999 Q 4.492925976562501 0.11099999999999988 4.519925976562501 0.08474999999999988 Q 4.546925976562501 0.058499999999999774 4.588925976562501 0.058499999999999774 Q 4.623425976562501 0.058499999999999774 4.6511759765625005 0.08474999999999988 Q 4.678925976562501 0.11099999999999988 4.678925976562501 0.1499999999999999 L 4.678925976562501 0.6929999999999998 Q 4.678925976562501 0.7679999999999998 4.711175976562501 0.8227499999999999 Q 4.7434259765625 0.8774999999999998 4.796675976562501 0.9074999999999999 Q 4.849925976562501 0.9374999999999999 4.9099259765625005 0.9374999999999999 Q 4.974425976562501 0.9374999999999999 5.029925976562501 0.9074999999999999 Q 5.085425976562501 0.8774999999999998 5.1199259765625005 0.8227499999999999 Q 5.154425976562501 0.7679999999999998 5.154425976562501 0.6929999999999998 L 5.154425976562501 0.1499999999999999 Q 5.154425976562501 0.11099999999999988 5.176925976562501 0.08474999999999988 Q 5.199425976562501 0.058499999999999774 5.2384259765625005 0.058499999999999774 M 5.784001611328126 1.0185 Q 5.784001611328126 1.0574999999999999 5.755501611328126 1.0837499999999998 Q 5.727001611328126 1.1099999999999999 5.689501611328126 1.1099999999999999 Q 5.647501611328126 1.1099999999999999 5.622001611328126 1.0837499999999998 Q 5.596501611328126 1.0574999999999999 5.596501611328126 1.0185 L 5.596501611328126 0.15149999999999986 Q 5.596501611328126 0.11249999999999982 5.623501611328126 0.08624999999999994 Q 5.650501611328126 0.05999999999999983 5.692501611328126 0.05999999999999983 Q 5.728501611328126 0.05999999999999983 5.756251611328126 0.08624999999999994 Q 5.784001611328126 0.11249999999999982 5.784001611328126 0.15149999999999986 L 5.784001611328126 1.0185" fill="#eda0a0" fill-rule="nonzero"></path></g><g></g><g clip-path="url(#SvgjsClipPath1001)"><g clip-path="url(#SvgjsClipPath1000b22b2e63-18c9-4a2e-90c9-0166bc0ad51d)"><path d=" M -0.24676581539276632 0.0829386850005508 C -0.2481198137511853 0.07091283801372206 -0.2549725708432742 0.0601941807138206 -0.2653196727805247 0.0539178928933528 L -1.077492387343168 -0.3656551993443118 C -1.0856173586907358 -0.3698556159164214 -1.0952600080324764 -0.36992218252923426 -1.1034421961585992 -0.3658343400363317 L -1.9266192675167406 0.04539591425869949 C -1.9360204052912107 0.05010942881214753 -1.9420962459145894 0.05958145821693078 -1.942460422996772 0.0700917382299916 C -1.942460422996772 0.07032206197687424 -1.942460422996772 0.07052679419632585 -1.942460422996772 0.07075711794320849 C -1.942601715562278 0.07186924462577621 -1.9426786183537545 0.07298860747949248 -1.9426907467436545 0.0741096080367204 L -1.94573613850799 1.0151612547438522 C -1.9457633382999322 1.0258343531318177 -1.9398423133182277 1.0356336494765381 -1.9303812220491547 1.0405736414832245 L -1.1138579478231754 1.4722515261959366 C -1.1127593120217296 1.4731852214380252 -1.1115962858994228 1.4740403877044268 -1.1103775000925058 1.4748106789390758 C -1.1059151585165847 1.477483244308576 -1.100812635353324 1.4788981554110405 -1.0956111887645932 1.4789053233280982 C -1.0909445612229303 1.4789095286631033 -1.0863483784329155 1.4777670740499063 -1.0822268199179754 1.4755784247620176 L -0.2602781418765412 1.0412902042513021 C -0.2508375479731981 1.0363413449091978 -0.24492291841383196 1.0265624907043809 -0.24492322541770628 1.0159034090393622 Z M -1.0908511646623547 -0.30807426262368054 L -0.3382043429051289 0.08076340516888264 L -0.6949758268261588 0.2866216518269964 L -1.0995266924615965 0.5146677527681272 L -1.8537345973921373 0.07303476388460273 Z M -1.8883599340068102 0.9980149313648193 L -1.8855192744619258 0.12391072041820839 L -1.1259883318256552 0.5657228499937528 L -1.1243760655974775 1.3944532828045064 L -1.1243760655974775 1.4017468681224532 Z M -1.0670510441511603 1.402719346164846 L -1.0670510441511603 1.3944532828045064 L -1.0642103846062758 0.5658252161034789 L -0.6666971890144704 0.33644835573591614 L -0.30396287920192666 0.13197205155909708 L -0.30235061297374877 0.9986291280231735 Z" fill="#eda0a0" transform="matrix(1,0,0,1,0,0)" fill-rule="nonzero"></path></g></g></g><defs><clipPath id="SvgjsClipPath1001"><path d=" M -1.9457105469805587 -0.36885414027323604 h 1.7007105469805586 v 1.847708280546472 h -1.7007105469805586 Z"></path></clipPath><clipPath id="SvgjsClipPath1000b22b2e63-18c9-4a2e-90c9-0166bc0ad51d"><path d=" M -1.9457105469805587 -0.36885414027323604 L -0.2450000000000001 -0.36885414027323604 L -0.2450000000000001 1.4788541402732358 L -1.9457105469805587 1.4788541402732358 Z"></path></clipPath></defs></svg>